<svg id="my-svg" width="100%" xmlns="http://www.w3.org/2000/svg" xmlns:xlink="http://www.w3.org/1999/xlink" style="max-width: 2961.5px; background-color: white;" viewBox="-50 -50 2961.5 2306" role="graphics-document document" aria-roledescription="sequence"><g><rect x="2711.5" y="2180" fill="#eaeaea" stroke="#666" width="150" height="65" name="C" rx="3" ry="3" class="actor actor-bottom"/><text x="2786.5" y="2212.5" dominant-baseline="central" alignment-baseline="central" class="actor actor-box" style="text-anchor: middle; font-size: 16px; font-weight: 400;"><tspan x="2786.5" dy="0">CHRONICLER</tspan></text></g><g><rect x="2279.5" y="2180" fill="#eaeaea" stroke="#666" width="150" height="65" name="G" rx="3" ry="3" class="actor actor-bottom"/><text x="2354.5" y="2212.5" dominant-baseline="central" alignment-baseline="central" class="actor actor-box" style="text-anchor: middle; font-size: 16px; font-weight: 400;"><tspan x="2354.5" dy="0">GUARDIAN</tspan></text></g><g><rect x="2032.5" y="2180" fill="#eaeaea" stroke="#666" width="150" height="65" name="D" rx="3" ry="3" class="actor actor-bottom"/><text x="2107.5" y="2212.5" dominant-baseline="central" alignment-baseline="central" class="actor actor-box" style="text-anchor: middle; font-size: 16px; font-weight: 400;"><tspan x="2107.5" dy="0">DIAGNOSTICIAN</tspan></text></g><g><rect x="1781" y="2180" fill="#eaeaea" stroke="#666" width="150" height="65" name="S" rx="3" ry="3" class="actor actor-bottom"/><text x="1856" y="2212.5" dominant-baseline="central" alignment-baseline="central" class="actor actor-box" style="text-anchor: middle; font-size: 16px; font-weight: 400;"><tspan x="1856" dy="0">SENTINEL</tspan></text></g><g><rect x="1429" y="2180" fill="#eaeaea" stroke="#666" width="220" height="65" name="EB" rx="3" ry="3" class="actor actor-bottom"/><text x="1539" y="2212.5" dominant-baseline="central" alignment-baseline="central" class="actor actor-box" style="text-anchor: middle; font-size: 16px; font-weight: 400;"><tspan x="1539" dy="0">EventBridge → Step Functions</tspan></text></g><g><rect x="1074" y="2180" fill="#eaeaea" stroke="#666" width="150" height="65" name="R" rx="3" ry="3" class="actor actor-bottom"/><text x="1149" y="2212.5" dominant-baseline="central" alignment-baseline="central" class="actor actor-box" style="text-anchor: middle; font-size: 16px; font-weight: 400;"><tspan x="1149" dy="0">Receiver λ</tspan></text></g><g><rect x="874" y="2180" fill="#eaeaea" stroke="#666" width="150" height="65" name="O" rx="3" ry="3" class="actor actor-bottom"/><text x="949" y="2212.5" dominant-baseline="central" alignment-baseline="central" class="actor actor-box" style="text-anchor: middle; font-size: 16px; font-weight: 400;"><tspan x="949" dy="0">ORACLE</tspan></text></g><g><rect x="428.5" y="2180" fill="#eaeaea" stroke="#666" width="155" height="65" name="DB" rx="3" ry="3" class="actor actor-bottom"/><text x="506" y="2212.5" dominant-baseline="central" alignment-baseline="central" class="actor actor-box" style="text-anchor: middle; font-size: 16px; font-weight: 400;"><tspan x="506" dy="0">CockroachDB Cloud</tspan></text></g><g><rect x="0" y="2180" fill="#eaeaea" stroke="#666" width="150" height="65" name="F" rx="3" ry="3" class="actor actor-bottom"/><text x="75" y="2212.5" dominant-baseline="central" alignment-baseline="central" class="actor actor-box" style="text-anchor: middle; font-size: 16px; font-weight: 400;"><tspan x="75" dy="0">Service fleet</tspan></text></g><g><line id="actor8" x1="2786.5" y1="65" x2="2786.5" y2="2180" class="actor-line 200" stroke-width="0.5px" stroke="#999" name="C"/><g id="root-8"><rect x="2711.5" y="0" fill="#eaeaea" stroke="#666" width="150" height="65" name="C" rx="3" ry="3" class="actor actor-top"/><text x="2786.5" y="32.5" dominant-baseline="central" alignment-baseline="central" class="actor actor-box" style="text-anchor: middle; font-size: 16px; font-weight: 400;"><tspan x="2786.5" dy="0">CHRONICLER</tspan></text></g></g><g><line id="actor7" x1="2354.5" y1="65" x2="2354.5" y2="2180" class="actor-line 200" stroke-width="0.5px" stroke="#999" name="G"/><g id="root-7"><rect x="2279.5" y="0" fill="#eaeaea" stroke="#666" width="150" height="65" name="G" rx="3" ry="3" class="actor actor-top"/><text x="2354.5" y="32.5" dominant-baseline="central" alignment-baseline="central" class="actor actor-box" style="text-anchor: middle; font-size: 16px; font-weight: 400;"><tspan x="2354.5" dy="0">GUARDIAN</tspan></text></g></g><g><line id="actor6" x1="2107.5" y1="65" x2="2107.5" y2="2180" class="actor-line 200" stroke-width="0.5px" stroke="#999" name="D"/><g id="root-6"><rect x="2032.5" y="0" fill="#eaeaea" stroke="#666" width="150" height="65" name="D" rx="3" ry="3" class="actor actor-top"/><text x="2107.5" y="32.5" dominant-baseline="central" alignment-baseline="central" class="actor actor-box" style="text-anchor: middle; font-size: 16px; font-weight: 400;"><tspan x="2107.5" dy="0">DIAGNOSTICIAN</tspan></text></g></g><g><line id="actor5" x1="1856" y1="65" x2="1856" y2="2180" class="actor-line 200" stroke-width="0.5px" stroke="#999" name="S"/><g id="root-5"><rect x="1781" y="0" fill="#eaeaea" stroke="#666" width="150" height="65" name="S" rx="3" ry="3" class="actor actor-top"/><text x="1856" y="32.5" dominant-baseline="central" alignment-baseline="central" class="actor actor-box" style="text-anchor: middle; font-size: 16px; font-weight: 400;"><tspan x="1856" dy="0">SENTINEL</tspan></text></g></g><g><line id="actor4" x1="1539" y1="65" x2="1539" y2="2180" class="actor-line 200" stroke-width="0.5px" stroke="#999" name="EB"/><g id="root-4"><rect x="1429" y="0" fill="#eaeaea" stroke="#666" width="220" height="65" name="EB" rx="3" ry="3" class="actor actor-top"/><text x="1539" y="32.5" dominant-baseline="central" alignment-baseline="central" class="actor actor-box" style="text-anchor: middle; font-size: 16px; font-weight: 400;"><tspan x="1539" dy="0">EventBridge → Step Functions</tspan></text></g></g><g><line id="actor3" x1="1149" y1="65" x2="1149" y2="2180" class="actor-line 200" stroke-width="0.5px" stroke="#999" name="R"/><g id="root-3"><rect x="1074" y="0" fill="#eaeaea" stroke="#666" width="150" height="65" name="R" rx="3" ry="3" class="actor actor-top"/><text x="1149" y="32.5" dominant-baseline="central" alignment-baseline="central" class="actor actor-box" style="text-anchor: middle; font-size: 16px; font-weight: 400;"><tspan x="1149" dy="0">Receiver λ</tspan></text></g></g><g><line id="actor2" x1="949" y1="65" x2="949" y2="2180" class="actor-line 200" stroke-width="0.5px" stroke="#999" name="O"/><g id="root-2"><rect x="874" y="0" fill="#eaeaea" stroke="#666" width="150" height="65" name="O" rx="3" ry="3" class="actor actor-top"/><text x="949" y="32.5" dominant-baseline="central" alignment-baseline="central" class="actor actor-box" style="text-anchor: middle; font-size: 16px; font-weight: 400;"><tspan x="949" dy="0">ORACLE</tspan></text></g></g><g><line id="actor1" x1="506" y1="65" x2="506" y2="2180" class="actor-line 200" stroke-width="0.5px" stroke="#999" name="DB"/><g id="root-1"><rect x="428.5" y="0" fill="#eaeaea" stroke="#666" width="155" height="65" name="DB" rx="3" ry="3" class="actor actor-top"/><text x="506" y="32.5" dominant-baseline="central" alignment-baseline="central" class="actor actor-box" style="text-anchor: middle; font-size: 16px; font-weight: 400;"><tspan x="506" dy="0">CockroachDB Cloud</tspan></text></g></g><g><line id="actor0" x1="75" y1="65" x2="75" y2="2180" class="actor-line 200" stroke-width="0.5px" stroke="#999" name="F"/><g id="root-0"><rect x="0" y="0" fill="#eaeaea" stroke="#666" width="150" height="65" name="F" rx="3" ry="3" class="actor actor-top"/><text x="75" y="32.5" dominant-baseline="central" alignment-baseline="central" class="actor actor-box" style="text-anchor: middle; font-size: 16px; font-weight: 400;"><tspan x="75" dy="0">Service fleet</tspan></text></g></g><style>#my-svg{font-family:"trebuchet ms",verdana,arial,sans-serif;font-size:16px;fill:#333;}@keyframes edge-animation-frame{from{stroke-dashoffset:0;}}@keyframes dash{to{stroke-dashoffset:0;}}#my-svg .edge-animation-slow{stroke-dasharray:9,5!important;stroke-dashoffset:900;animation:dash 50s linear infinite;stroke-linecap:round;}#my-svg .edge-animation-fast{stroke-dasharray:9,5!important;stroke-dashoffset:900;animation:dash 20s linear infinite;stroke-linecap:round;}#my-svg .error-icon{fill:#552222;}#my-svg .error-text{fill:#552222;stroke:#552222;}#my-svg .edge-thickness-normal{stroke-width:1px;}#my-svg .edge-thickness-thick{stroke-width:3.5px;}#my-svg .edge-pattern-solid{stroke-dasharray:0;}#my-svg .edge-thickness-invisible{stroke-width:0;fill:none;}#my-svg .edge-pattern-dashed{stroke-dasharray:3;}#my-svg .edge-pattern-dotted{stroke-dasharray:2;}#my-svg .marker{fill:#333333;stroke:#333333;}#my-svg .marker.cross{stroke:#333333;}#my-svg svg{font-family:"trebuchet ms",verdana,arial,sans-serif;font-size:16px;}#my-svg p{margin:0;}#my-svg .actor{stroke:hsl(259.6261682243, 59.7765363128%, 87.9019607843%);fill:#ECECFF;}#my-svg text.actor&gt;tspan{fill:black;stroke:none;}#my-svg .actor-line{stroke:hsl(259.6261682243, 59.7765363128%, 87.9019607843%);}#my-svg .innerArc{stroke-width:1.5;stroke-dasharray:none;}#my-svg .messageLine0{stroke-width:1.5;stroke-dasharray:none;stroke:#333;}#my-svg .messageLine1{stroke-width:1.5;stroke-dasharray:2,2;stroke:#333;}#my-svg #arrowhead path{fill:#333;stroke:#333;}#my-svg .sequenceNumber{fill:white;}#my-svg #sequencenumber{fill:#333;}#my-svg #crosshead path{fill:#333;stroke:#333;}#my-svg .messageText{fill:#333;stroke:none;}#my-svg .labelBox{stroke:hsl(259.6261682243, 59.7765363128%, 87.9019607843%);fill:#ECECFF;}#my-svg .labelText,#my-svg .labelText&gt;tspan{fill:black;stroke:none;}#my-svg .loopText,#my-svg .loopText&gt;tspan{fill:black;stroke:none;}#my-svg .loopLine{stroke-width:2px;stroke-dasharray:2,2;stroke:hsl(259.6261682243, 59.7765363128%, 87.9019607843%);fill:hsl(259.6261682243, 59.7765363128%, 87.9019607843%);}#my-svg .note{stroke:#aaaa33;fill:#fff5ad;}#my-svg .noteText,#my-svg .noteText&gt;tspan{fill:black;stroke:none;}#my-svg .activation0{fill:#f4f4f4;stroke:#666;}#my-svg .activation1{fill:#f4f4f4;stroke:#666;}#my-svg .activation2{fill:#f4f4f4;stroke:#666;}#my-svg .actorPopupMenu{position:absolute;}#my-svg .actorPopupMenuPanel{position:absolute;fill:#ECECFF;box-shadow:0px 8px 16px 0px rgba(0,0,0,0.2);filter:drop-shadow(3px 5px 2px rgb(0 0 0 / 0.4));}#my-svg .actor-man line{stroke:hsl(259.6261682243, 59.7765363128%, 87.9019607843%);fill:#ECECFF;}#my-svg .actor-man circle,#my-svg line{stroke:hsl(259.6261682243, 59.7765363128%, 87.9019607843%);fill:#ECECFF;stroke-width:2px;}#my-svg :root{--mermaid-font-family:"trebuchet ms",verdana,arial,sans-serif;}</style><g/><defs><symbol id="computer" width="24" height="24"><path transform="scale(.5)" d="M2 2v13h20v-13h-20zm18 11h-16v-9h16v9zm-10.228 6l.466-1h3.524l.467 1h-4.457zm14.228 3h-24l2-6h2.104l-1.33 4h18.45l-1.297-4h2.073l2 6zm-5-10h-14v-7h14v7z"/></symbol></defs><defs><symbol id="database" fill-rule="evenodd" clip-rule="evenodd"><path transform="scale(.5)" d="M12.258.001l.256.004.255.005.253.008.251.01.249.012.247.015.246.016.242.019.241.02.239.023.236.024.233.027.231.028.229.031.225.032.223.034.22.036.217.038.214.04.211.041.208.043.205.045.201.046.198.048.194.05.191.051.187.053.183.054.18.056.175.057.172.059.168.06.163.061.16.063.155.064.15.066.074.033.073.033.071.034.07.034.069.035.068.035.067.035.066.035.064.036.064.036.062.036.06.036.06.037.058.037.058.037.055.038.055.038.053.038.052.038.051.039.05.039.048.039.047.039.045.04.044.04.043.04.041.04.04.041.039.041.037.041.036.041.034.041.033.042.032.042.03.042.029.042.027.042.026.043.024.043.023.043.021.043.02.043.018.044.017.043.015.044.013.044.012.044.011.045.009.044.007.045.006.045.004.045.002.045.001.045v17l-.001.045-.002.045-.004.045-.006.045-.007.045-.009.044-.011.045-.012.044-.013.044-.015.044-.017.043-.018.044-.02.043-.021.043-.023.043-.024.043-.026.043-.027.042-.029.042-.03.042-.032.042-.033.042-.034.041-.036.041-.037.041-.039.041-.04.041-.041.04-.043.04-.044.04-.045.04-.047.039-.048.039-.05.039-.051.039-.052.038-.053.038-.055.038-.055.038-.058.037-.058.037-.06.037-.06.036-.062.036-.064.036-.064.036-.066.035-.067.035-.068.035-.069.035-.07.034-.071.034-.073.033-.074.033-.15.066-.155.064-.16.063-.163.061-.168.06-.172.059-.175.057-.18.056-.183.054-.187.053-.191.051-.194.05-.198.048-.201.046-.205.045-.208.043-.211.041-.214.04-.217.038-.22.036-.223.034-.225.032-.229.031-.231.028-.233.027-.236.024-.239.023-.241.02-.242.019-.246.016-.247.015-.249.012-.251.01-.253.008-.255.005-.256.004-.258.001-.258-.001-.256-.004-.255-.005-.253-.008-.251-.01-.249-.012-.247-.015-.245-.016-.243-.019-.241-.02-.238-.023-.236-.024-.234-.027-.231-.028-.228-.031-.226-.032-.223-.034-.22-.036-.217-.038-.214-.04-.211-.041-.208-.043-.204-.045-.201-.046-.198-.048-.195-.05-.19-.051-.187-.053-.184-.054-.179-.056-.176-.057-.172-.059-.167-.06-.164-.061-.159-.063-.155-.064-.151-.066-.074-.033-.072-.033-.072-.034-.07-.034-.069-.035-.068-.035-.067-.035-.066-.035-.064-.036-.063-.036-.062-.036-.061-.036-.06-.037-.058-.037-.057-.037-.056-.038-.055-.038-.053-.038-.052-.038-.051-.039-.049-.039-.049-.039-.046-.039-.046-.04-.044-.04-.043-.04-.041-.04-.04-.041-.039-.041-.037-.041-.036-.041-.034-.041-.033-.042-.032-.042-.03-.042-.029-.042-.027-.042-.026-.043-.024-.043-.023-.043-.021-.043-.02-.043-.018-.044-.017-.043-.015-.044-.013-.044-.012-.044-.011-.045-.009-.044-.007-.045-.006-.045-.004-.045-.002-.045-.001-.045v-17l.001-.045.002-.045.004-.045.006-.045.007-.045.009-.044.011-.045.012-.044.013-.044.015-.044.017-.043.018-.044.02-.043.021-.043.023-.043.024-.043.026-.043.027-.042.029-.042.03-.042.032-.042.033-.042.034-.041.036-.041.037-.041.039-.041.04-.041.041-.04.043-.04.044-.04.046-.04.046-.039.049-.039.049-.039.051-.039.052-.038.053-.038.055-.038.056-.038.057-.037.058-.037.06-.037.061-.036.062-.036.063-.036.064-.036.066-.035.067-.035.068-.035.069-.035.07-.034.072-.034.072-.033.074-.033.151-.066.155-.064.159-.063.164-.061.167-.06.172-.059.176-.057.179-.056.184-.054.187-.053.19-.051.195-.05.198-.048.201-.046.204-.045.208-.043.211-.041.214-.04.217-.038.22-.036.223-.034.226-.032.228-.031.231-.028.234-.027.236-.024.238-.023.241-.02.243-.019.245-.016.247-.015.249-.012.251-.01.253-.008.255-.005.256-.004.258-.001.258.001zm-9.258 20.499v.01l.001.021.003.021.004.022.005.021.006.022.007.022.009.023.01.022.011.023.012.023.013.023.015.023.016.024.017.023.018.024.019.024.021.024.022.025.023.024.024.025.052.049.056.05.061.051.066.051.07.051.075.051.079.052.084.052.088.052.092.052.097.052.102.051.105.052.11.052.114.051.119.051.123.051.127.05.131.05.135.05.139.048.144.049.147.047.152.047.155.047.16.045.163.045.167.043.171.043.176.041.178.041.183.039.187.039.19.037.194.035.197.035.202.033.204.031.209.03.212.029.216.027.219.025.222.024.226.021.23.02.233.018.236.016.24.015.243.012.246.01.249.008.253.005.256.004.259.001.26-.001.257-.004.254-.005.25-.008.247-.011.244-.012.241-.014.237-.016.233-.018.231-.021.226-.021.224-.024.22-.026.216-.027.212-.028.21-.031.205-.031.202-.034.198-.034.194-.036.191-.037.187-.039.183-.04.179-.04.175-.042.172-.043.168-.044.163-.045.16-.046.155-.046.152-.047.148-.048.143-.049.139-.049.136-.05.131-.05.126-.05.123-.051.118-.052.114-.051.11-.052.106-.052.101-.052.096-.052.092-.052.088-.053.083-.051.079-.052.074-.052.07-.051.065-.051.06-.051.056-.05.051-.05.023-.024.023-.025.021-.024.02-.024.019-.024.018-.024.017-.024.015-.023.014-.024.013-.023.012-.023.01-.023.01-.022.008-.022.006-.022.006-.022.004-.022.004-.021.001-.021.001-.021v-4.127l-.077.055-.08.053-.083.054-.085.053-.087.052-.09.052-.093.051-.095.05-.097.05-.1.049-.102.049-.105.048-.106.047-.109.047-.111.046-.114.045-.115.045-.118.044-.12.043-.122.042-.124.042-.126.041-.128.04-.13.04-.132.038-.134.038-.135.037-.138.037-.139.035-.142.035-.143.034-.144.033-.147.032-.148.031-.15.03-.151.03-.153.029-.154.027-.156.027-.158.026-.159.025-.161.024-.162.023-.163.022-.165.021-.166.02-.167.019-.169.018-.169.017-.171.016-.173.015-.173.014-.175.013-.175.012-.177.011-.178.01-.179.008-.179.008-.181.006-.182.005-.182.004-.184.003-.184.002h-.37l-.184-.002-.184-.003-.182-.004-.182-.005-.181-.006-.179-.008-.179-.008-.178-.01-.176-.011-.176-.012-.175-.013-.173-.014-.172-.015-.171-.016-.17-.017-.169-.018-.167-.019-.166-.02-.165-.021-.163-.022-.162-.023-.161-.024-.159-.025-.157-.026-.156-.027-.155-.027-.153-.029-.151-.03-.15-.03-.148-.031-.146-.032-.145-.033-.143-.034-.141-.035-.14-.035-.137-.037-.136-.037-.134-.038-.132-.038-.13-.04-.128-.04-.126-.041-.124-.042-.122-.042-.12-.044-.117-.043-.116-.045-.113-.045-.112-.046-.109-.047-.106-.047-.105-.048-.102-.049-.1-.049-.097-.05-.095-.05-.093-.052-.09-.051-.087-.052-.085-.053-.083-.054-.08-.054-.077-.054v4.127zm0-5.654v.011l.001.021.003.021.004.021.005.022.006.022.007.022.009.022.01.022.011.023.012.023.013.023.015.024.016.023.017.024.018.024.019.024.021.024.022.024.023.025.024.024.052.05.056.05.061.05.066.051.07.051.075.052.079.051.084.052.088.052.092.052.097.052.102.052.105.052.11.051.114.051.119.052.123.05.127.051.131.05.135.049.139.049.144.048.147.048.152.047.155.046.16.045.163.045.167.044.171.042.176.042.178.04.183.04.187.038.19.037.194.036.197.034.202.033.204.032.209.03.212.028.216.027.219.025.222.024.226.022.23.02.233.018.236.016.24.014.243.012.246.01.249.008.253.006.256.003.259.001.26-.001.257-.003.254-.006.25-.008.247-.01.244-.012.241-.015.237-.016.233-.018.231-.02.226-.022.224-.024.22-.025.216-.027.212-.029.21-.03.205-.032.202-.033.198-.035.194-.036.191-.037.187-.039.183-.039.179-.041.175-.042.172-.043.168-.044.163-.045.16-.045.155-.047.152-.047.148-.048.143-.048.139-.05.136-.049.131-.05.126-.051.123-.051.118-.051.114-.052.11-.052.106-.052.101-.052.096-.052.092-.052.088-.052.083-.052.079-.052.074-.051.07-.052.065-.051.06-.05.056-.051.051-.049.023-.025.023-.024.021-.025.02-.024.019-.024.018-.024.017-.024.015-.023.014-.023.013-.024.012-.022.01-.023.01-.023.008-.022.006-.022.006-.022.004-.021.004-.022.001-.021.001-.021v-4.139l-.077.054-.08.054-.083.054-.085.052-.087.053-.09.051-.093.051-.095.051-.097.05-.1.049-.102.049-.105.048-.106.047-.109.047-.111.046-.114.045-.115.044-.118.044-.12.044-.122.042-.124.042-.126.041-.128.04-.13.039-.132.039-.134.038-.135.037-.138.036-.139.036-.142.035-.143.033-.144.033-.147.033-.148.031-.15.03-.151.03-.153.028-.154.028-.156.027-.158.026-.159.025-.161.024-.162.023-.163.022-.165.021-.166.02-.167.019-.169.018-.169.017-.171.016-.173.015-.173.014-.175.013-.175.012-.177.011-.178.009-.179.009-.179.007-.181.007-.182.005-.182.004-.184.003-.184.002h-.37l-.184-.002-.184-.003-.182-.004-.182-.005-.181-.007-.179-.007-.179-.009-.178-.009-.176-.011-.176-.012-.175-.013-.173-.014-.172-.015-.171-.016-.17-.017-.169-.018-.167-.019-.166-.02-.165-.021-.163-.022-.162-.023-.161-.024-.159-.025-.157-.026-.156-.027-.155-.028-.153-.028-.151-.03-.15-.03-.148-.031-.146-.033-.145-.033-.143-.033-.141-.035-.14-.036-.137-.036-.136-.037-.134-.038-.132-.039-.13-.039-.128-.04-.126-.041-.124-.042-.122-.043-.12-.043-.117-.044-.116-.044-.113-.046-.112-.046-.109-.046-.106-.047-.105-.048-.102-.049-.1-.049-.097-.05-.095-.051-.093-.051-.09-.051-.087-.053-.085-.052-.083-.054-.08-.054-.077-.054v4.139zm0-5.666v.011l.001.02.003.022.004.021.005.022.006.021.007.022.009.023.01.022.011.023.012.023.013.023.015.023.016.024.017.024.018.023.019.024.021.025.022.024.023.024.024.025.052.05.056.05.061.05.066.051.07.051.075.052.079.051.084.052.088.052.092.052.097.052.102.052.105.051.11.052.114.051.119.051.123.051.127.05.131.05.135.05.139.049.144.048.147.048.152.047.155.046.16.045.163.045.167.043.171.043.176.042.178.04.183.04.187.038.19.037.194.036.197.034.202.033.204.032.209.03.212.028.216.027.219.025.222.024.226.021.23.02.233.018.236.017.24.014.243.012.246.01.249.008.253.006.256.003.259.001.26-.001.257-.003.254-.006.25-.008.247-.01.244-.013.241-.014.237-.016.233-.018.231-.02.226-.022.224-.024.22-.025.216-.027.212-.029.21-.03.205-.032.202-.033.198-.035.194-.036.191-.037.187-.039.183-.039.179-.041.175-.042.172-.043.168-.044.163-.045.16-.045.155-.047.152-.047.148-.048.143-.049.139-.049.136-.049.131-.051.126-.05.123-.051.118-.052.114-.051.11-.052.106-.052.101-.052.096-.052.092-.052.088-.052.083-.052.079-.052.074-.052.07-.051.065-.051.06-.051.056-.05.051-.049.023-.025.023-.025.021-.024.02-.024.019-.024.018-.024.017-.024.015-.023.014-.024.013-.023.012-.023.01-.022.01-.023.008-.022.006-.022.006-.022.004-.022.004-.021.001-.021.001-.021v-4.153l-.077.054-.08.054-.083.053-.085.053-.087.053-.09.051-.093.051-.095.051-.097.05-.1.049-.102.048-.105.048-.106.048-.109.046-.111.046-.114.046-.115.044-.118.044-.12.043-.122.043-.124.042-.126.041-.128.04-.13.039-.132.039-.134.038-.135.037-.138.036-.139.036-.142.034-.143.034-.144.033-.147.032-.148.032-.15.03-.151.03-.153.028-.154.028-.156.027-.158.026-.159.024-.161.024-.162.023-.163.023-.165.021-.166.02-.167.019-.169.018-.169.017-.171.016-.173.015-.173.014-.175.013-.175.012-.177.01-.178.01-.179.009-.179.007-.181.006-.182.006-.182.004-.184.003-.184.001-.185.001-.185-.001-.184-.001-.184-.003-.182-.004-.182-.006-.181-.006-.179-.007-.179-.009-.178-.01-.176-.01-.176-.012-.175-.013-.173-.014-.172-.015-.171-.016-.17-.017-.169-.018-.167-.019-.166-.02-.165-.021-.163-.023-.162-.023-.161-.024-.159-.024-.157-.026-.156-.027-.155-.028-.153-.028-.151-.03-.15-.03-.148-.032-.146-.032-.145-.033-.143-.034-.141-.034-.14-.036-.137-.036-.136-.037-.134-.038-.132-.039-.13-.039-.128-.041-.126-.041-.124-.041-.122-.043-.12-.043-.117-.044-.116-.044-.113-.046-.112-.046-.109-.046-.106-.048-.105-.048-.102-.048-.1-.05-.097-.049-.095-.051-.093-.051-.09-.052-.087-.052-.085-.053-.083-.053-.08-.054-.077-.054v4.153zm8.74-8.179l-.257.004-.254.005-.25.008-.247.011-.244.012-.241.014-.237.016-.233.018-.231.021-.226.022-.224.023-.22.026-.216.027-.212.028-.21.031-.205.032-.202.033-.198.034-.194.036-.191.038-.187.038-.183.04-.179.041-.175.042-.172.043-.168.043-.163.045-.16.046-.155.046-.152.048-.148.048-.143.048-.139.049-.136.05-.131.05-.126.051-.123.051-.118.051-.114.052-.11.052-.106.052-.101.052-.096.052-.092.052-.088.052-.083.052-.079.052-.074.051-.07.052-.065.051-.06.05-.056.05-.051.05-.023.025-.023.024-.021.024-.02.025-.019.024-.018.024-.017.023-.015.024-.014.023-.013.023-.012.023-.01.023-.01.022-.008.022-.006.023-.006.021-.004.022-.004.021-.001.021-.001.021.001.021.001.021.004.021.004.022.006.021.006.023.008.022.01.022.01.023.012.023.013.023.014.023.015.024.017.023.018.024.019.024.02.025.021.024.023.024.023.025.051.05.056.05.06.05.065.051.07.052.074.051.079.052.083.052.088.052.092.052.096.052.101.052.106.052.11.052.114.052.118.051.123.051.126.051.131.05.136.05.139.049.143.048.148.048.152.048.155.046.16.046.163.045.168.043.172.043.175.042.179.041.183.04.187.038.191.038.194.036.198.034.202.033.205.032.21.031.212.028.216.027.22.026.224.023.226.022.231.021.233.018.237.016.241.014.244.012.247.011.25.008.254.005.257.004.26.001.26-.001.257-.004.254-.005.25-.008.247-.011.244-.012.241-.014.237-.016.233-.018.231-.021.226-.022.224-.023.22-.026.216-.027.212-.028.21-.031.205-.032.202-.033.198-.034.194-.036.191-.038.187-.038.183-.04.179-.041.175-.042.172-.043.168-.043.163-.045.16-.046.155-.046.152-.048.148-.048.143-.048.139-.049.136-.05.131-.05.126-.051.123-.051.118-.051.114-.052.11-.052.106-.052.101-.052.096-.052.092-.052.088-.052.083-.052.079-.052.074-.051.07-.052.065-.051.06-.05.056-.05.051-.05.023-.025.023-.024.021-.024.02-.025.019-.024.018-.024.017-.023.015-.024.014-.023.013-.023.012-.023.01-.023.01-.022.008-.022.006-.023.006-.021.004-.022.004-.021.001-.021.001-.021-.001-.021-.001-.021-.004-.021-.004-.022-.006-.021-.006-.023-.008-.022-.01-.022-.01-.023-.012-.023-.013-.023-.014-.023-.015-.024-.017-.023-.018-.024-.019-.024-.02-.025-.021-.024-.023-.024-.023-.025-.051-.05-.056-.05-.06-.05-.065-.051-.07-.052-.074-.051-.079-.052-.083-.052-.088-.052-.092-.052-.096-.052-.101-.052-.106-.052-.11-.052-.114-.052-.118-.051-.123-.051-.126-.051-.131-.05-.136-.05-.139-.049-.143-.048-.148-.048-.152-.048-.155-.046-.16-.046-.163-.045-.168-.043-.172-.043-.175-.042-.179-.041-.183-.04-.187-.038-.191-.038-.194-.036-.198-.034-.202-.033-.205-.032-.21-.031-.212-.028-.216-.027-.22-.026-.224-.023-.226-.022-.231-.021-.233-.018-.237-.016-.241-.014-.244-.012-.247-.011-.25-.008-.254-.005-.257-.004-.26-.001-.26.001z"/></symbol></defs><defs><symbol id="clock" width="24" height="24"><path transform="scale(.5)" d="M12 2c5.514 0 10 4.486 10 10s-4.486 10-10 10-10-4.486-10-10 4.486-10 10-10zm0-2c-6.627 0-12 5.373-12 12s5.373 12 12 12 12-5.373 12-12-5.373-12-12-12zm5.848 12.459c.202.038.202.333.001.372-1.907.361-6.045 1.111-6.547 1.111-.719 0-1.301-.582-1.301-1.301 0-.512.77-5.447 1.125-7.445.034-.192.312-.181.343.014l.985 6.238 5.394 1.011z"/></symbol></defs><defs><marker id="arrowhead" refX="7.9" refY="5" markerUnits="userSpaceOnUse" markerWidth="12" markerHeight="12" orient="auto-start-reverse"><path d="M -1 0 L 10 5 L 0 10 z"/></marker></defs><defs><marker id="crosshead" markerWidth="15" markerHeight="8" orient="auto" refX="4" refY="4.5"><path fill="none" stroke="#000000" stroke-width="1pt" d="M 1,2 L 6,7 M 6,2 L 1,7" style="stroke-dasharray: 0, 0;"/></marker></defs><defs><marker id="filled-head" refX="15.5" refY="7" markerWidth="20" markerHeight="28" orient="auto"><path d="M 18,7 L9,13 L14,7 L9,1 Z"/></marker></defs><defs><marker id="sequencenumber" refX="15" refY="15" markerWidth="60" markerHeight="40" orient="auto"><circle cx="15" cy="15" r="6"/></marker></defs><defs><marker id="solidTopArrowHead" refX="7.9" refY="7.25" markerUnits="userSpaceOnUse" markerWidth="12" markerHeight="12" orient="auto-start-reverse"><path d="M 0 0 L 10 8 L 0 8 z"/></marker></defs><defs><marker id="solidBottomArrowHead" refX="7.9" refY="0.75" markerUnits="userSpaceOnUse" markerWidth="12" markerHeight="12" orient="auto-start-reverse"><path d="M 0 0 L 10 0 L 0 8 z"/></marker></defs><defs><marker id="stickTopArrowHead" refX="7.5" refY="7" markerUnits="userSpaceOnUse" markerWidth="12" markerHeight="12" orient="auto-start-reverse"><path d="M 0 0 L 7 7" stroke="black" stroke-width="1.5" fill="none"/></marker></defs><defs><marker id="stickBottomArrowHead" refX="7.5" refY="0" markerUnits="userSpaceOnUse" markerWidth="12" markerHeight="12" orient="auto-start-reverse"><path d="M 0 7 L 7 0" stroke="black" stroke-width="1.5" fill="none"/></marker></defs><g><rect x="365" y="119" fill="#EDF2AE" stroke="#666" width="282" height="39" class="note"/><text x="506" y="124" text-anchor="middle" dominant-baseline="middle" alignment-baseline="middle" class="noteText" dy="1em" style="font-size: 16px; font-weight: 400;"><tspan x="506">SENSORY tier · 2-hour Row-Level TTL</tspan></text></g><g><rect x="806" y="256" fill="#EDF2AE" stroke="#666" width="286" height="77" class="note"/><text x="949" y="261" text-anchor="middle" dominant-baseline="middle" alignment-baseline="middle" class="noteText" dy="1em" style="font-size: 16px; font-weight: 400;"><tspan x="949">α = neighbours that failed + 1</tspan></text><text x="949" y="280" text-anchor="middle" dominant-baseline="middle" alignment-baseline="middle" class="noteText" dy="1em" style="font-size: 16px; font-weight: 400;"><tspan x="949">β = neighbours that recovered + 1</tspan></text><text x="949" y="299" text-anchor="middle" dominant-baseline="middle" alignment-baseline="middle" class="noteText" dy="1em" style="font-size: 16px; font-weight: 400;"><tspan x="949">emit only if ≥ 5 matches and mean ≥ 0.60</tspan></text></g><g><rect x="481" y="387" fill="#EDF2AE" stroke="#666" width="493" height="58" class="note"/><text x="728" y="392" text-anchor="middle" dominant-baseline="middle" alignment-baseline="middle" class="noteText" dy="1em" style="font-size: 16px; font-weight: 400;"><tspan x="728">partial unique index makes the dedup a</tspan></text><text x="728" y="411" text-anchor="middle" dominant-baseline="middle" alignment-baseline="middle" class="noteText" dy="1em" style="font-size: 16px; font-weight: 400;"><tspan x="728">constraint, not a check-then-insert</tspan></text></g><g><rect x="481" y="499" fill="#EDF2AE" stroke="#666" width="693" height="39" class="note"/><text x="828" y="504" text-anchor="middle" dominant-baseline="middle" alignment-baseline="middle" class="noteText" dy="1em" style="font-size: 16px; font-weight: 400;"><tspan x="828">delivery is at-least-once, by design</tspan></text></g><g><rect x="1654.5" y="946" fill="#EDF2AE" stroke="#666" width="403" height="58" class="note"/><text x="1856" y="951" text-anchor="middle" dominant-baseline="middle" alignment-baseline="middle" class="noteText" dy="1em" style="font-size: 16px; font-weight: 400;"><tspan x="1856">Thompson sampling: draw from each Beta posterior,</tspan></text><text x="1856" y="970" text-anchor="middle" dominant-baseline="middle" alignment-baseline="middle" class="noteText" dy="1em" style="font-size: 16px; font-weight: 400;"><tspan x="1856">weight the draw by similarity — a bandit, not a leaderboard</tspan></text></g><g><line x1="495" y1="680" x2="2067.5" y2="680" class="loopLine"/><line x1="2067.5" y1="680" x2="2067.5" y2="1058" class="loopLine"/><line x1="495" y1="1058" x2="2067.5" y2="1058" class="loopLine"/><line x1="495" y1="680" x2="495" y2="1058" class="loopLine"/><line x1="495" y1="818" x2="2067.5" y2="818" class="loopLine" style="stroke-dasharray: 3, 3;"/><polygon points="495,680 545,680 545,693 536.6,700 495,700" class="labelBox"/><text x="520" y="693" text-anchor="middle" dominant-baseline="middle" alignment-baseline="middle" class="labelText" style="font-size: 16px; font-weight: 400;">alt</text><text x="1306.25" y="698" text-anchor="middle" class="loopText" style="font-size: 16px; font-weight: 400;"><tspan x="1306.25">[already claimed by an earlier delivery]</tspan></text><text x="1281.25" y="836" text-anchor="middle" class="loopText" style="font-size: 16px; font-weight: 400;">[the claim succeeds]</text></g><g><rect x="1910.5" y="1200" fill="#EDF2AE" stroke="#666" width="394" height="58" class="note"/><text x="2108" y="1205" text-anchor="middle" dominant-baseline="middle" alignment-baseline="middle" class="noteText" dy="1em" style="font-size: 16px; font-weight: 400;"><tspan x="2108">no incident within 0.80 and no candidate playbook</tspan></text><text x="2108" y="1224" text-anchor="middle" dominant-baseline="middle" alignment-baseline="middle" class="noteText" dy="1em" style="font-size: 16px; font-weight: 400;"><tspan x="2108">→ ask Bedrock for a genome → validate → birth or reject</tspan></text></g><g><line x1="64" y1="1312" x2="2797.5" y2="1312" class="loopLine"/><line x1="2797.5" y1="1312" x2="2797.5" y2="1639" class="loopLine"/><line x1="64" y1="1639" x2="2797.5" y2="1639" class="loopLine"/><line x1="64" y1="1312" x2="64" y2="1639" class="loopLine"/><line x1="64" y1="1406" x2="2797.5" y2="1406" class="loopLine" style="stroke-dasharray: 3, 3;"/><line x1="64" y1="1495" x2="2797.5" y2="1495" class="loopLine" style="stroke-dasharray: 3, 3;"/><polygon points="64,1312 114,1312 114,1325 105.6,1332 64,1332" class="labelBox"/><text x="89" y="1325" text-anchor="middle" dominant-baseline="middle" alignment-baseline="middle" class="labelText" style="font-size: 16px; font-weight: 400;">alt</text><text x="1455.75" y="1330" text-anchor="middle" class="loopText" style="font-size: 16px; font-weight: 400;"><tspan x="1455.75">[posterior &lt; 0.75]</tspan></text><text x="1430.75" y="1424" text-anchor="middle" class="loopText" style="font-size: 16px; font-weight: 400;">[reversible]</text><text x="1430.75" y="1513" text-anchor="middle" class="loopText" style="font-size: 16px; font-weight: 400;">[irreversible]</text></g><g><line x1="64" y1="1693" x2="2365.5" y2="1693" class="loopLine"/><line x1="2365.5" y1="1693" x2="2365.5" y2="2004" class="loopLine"/><line x1="64" y1="2004" x2="2365.5" y2="2004" class="loopLine"/><line x1="64" y1="1693" x2="64" y2="2004" class="loopLine"/><line x1="64" y1="1787" x2="2365.5" y2="1787" class="loopLine" style="stroke-dasharray: 3, 3;"/><line x1="64" y1="1920" x2="2365.5" y2="1920" class="loopLine" style="stroke-dasharray: 3, 3;"/><polygon points="64,1693 114,1693 114,1706 105.6,1713 64,1713" class="labelBox"/><text x="89" y="1706" text-anchor="middle" dominant-baseline="middle" alignment-baseline="middle" class="labelText" style="font-size: 16px; font-weight: 400;">alt</text><text x="1239.75" y="1711" text-anchor="middle" class="loopText" style="font-size: 16px; font-weight: 400;"><tspan x="1239.75">[improved beyond ε = 0.02]</tspan></text><text x="1214.75" y="1805" text-anchor="middle" class="loopText" style="font-size: 16px; font-weight: 400;">[degraded]</text><text x="1214.75" y="1938" text-anchor="middle" class="loopText" style="font-size: 16px; font-weight: 400;">[flat]</text></g><g><rect x="481" y="2102" fill="#EDF2AE" stroke="#666" width="2330.5" height="58" class="note"/><text x="1646" y="2107" text-anchor="middle" dominant-baseline="middle" alignment-baseline="middle" class="noteText" dy="1em" style="font-size: 16px; font-weight: 400;"><tspan x="1646">the lifecycle mutation and its evolution_log row</tspan></text><text x="1646" y="2126" text-anchor="middle" dominant-baseline="middle" alignment-baseline="middle" class="noteText" dy="1em" style="font-size: 16px; font-weight: 400;"><tspan x="1646">commit in one serializable transaction — or neither does</tspan></text></g><text x="289" y="80" text-anchor="middle" dominant-baseline="middle" alignment-baseline="middle" class="messageText" dy="1em" style="font-size: 16px; font-weight: 400;">5-min telemetry → trajectory_text() → VECTOR(1024)</text><line x1="82" y1="109" x2="502" y2="109" class="messageLine0" stroke-width="2" stroke="none" marker-end="url(#arrowhead)" style="fill: none;"/><line x1="75" y1="109" x2="75" y2="109" stroke-width="0" marker-start="url(#sequencenumber)"/><text x="75" y="113" font-family="sans-serif" font-size="12px" text-anchor="middle" class="sequenceNumber">1</text><text x="729" y="173" text-anchor="middle" dominant-baseline="middle" alignment-baseline="middle" class="messageText" dy="1em" style="font-size: 16px; font-weight: 400;">k-NN over precursor_snapshots (k = 14, similarity ≥ 0.72)</text><line x1="954" y1="202" x2="510" y2="202" class="messageLine0" stroke-width="2" stroke="none" marker-end="url(#arrowhead)" style="fill: none;"/><line x1="949" y1="202" x2="949" y2="202" stroke-width="0" marker-start="url(#sequencenumber)"/><text x="949" y="206" font-family="sans-serif" font-size="12px" text-anchor="middle" class="sequenceNumber">2</text><text x="726" y="217" text-anchor="middle" dominant-baseline="middle" alignment-baseline="middle" class="messageText" dy="1em" style="font-size: 16px; font-weight: 400;">14 neighbours + their outcomes</text><line x1="513" y1="246" x2="945" y2="246" class="messageLine1" stroke-width="2" stroke="none" marker-end="url(#arrowhead)" style="stroke-dasharray: 3, 3; fill: none;"/><line x1="506" y1="246" x2="506" y2="246" stroke-width="0" marker-start="url(#sequencenumber)"/><text x="506" y="250" font-family="sans-serif" font-size="12px" text-anchor="middle" class="sequenceNumber">3</text><text x="729" y="348" text-anchor="middle" dominant-baseline="middle" alignment-baseline="middle" class="messageText" dy="1em" style="font-size: 16px; font-weight: 400;">INSERT INTO predictions (α, β, eta, embedding)</text><line x1="954" y1="377" x2="510" y2="377" class="messageLine0" stroke-width="2" stroke="none" marker-end="url(#arrowhead)" style="fill: none;"/><line x1="949" y1="377" x2="949" y2="377" stroke-width="0" marker-start="url(#sequencenumber)"/><text x="949" y="381" font-family="sans-serif" font-size="12px" text-anchor="middle" class="sequenceNumber">4</text><text x="826" y="460" text-anchor="middle" dominant-baseline="middle" alignment-baseline="middle" class="messageText" dy="1em" style="font-size: 16px; font-weight: 400;">changefeed → webhook POST + Bearer secret</text><line x1="513" y1="489" x2="1145" y2="489" class="messageLine0" stroke-width="2" stroke="none" marker-end="url(#arrowhead)" style="fill: none;"/><line x1="506" y1="489" x2="506" y2="489" stroke-width="0" marker-start="url(#sequencenumber)"/><text x="506" y="493" font-family="sans-serif" font-size="12px" text-anchor="middle" class="sequenceNumber">5</text><text x="1343" y="553" text-anchor="middle" dominant-baseline="middle" alignment-baseline="middle" class="messageText" dy="1em" style="font-size: 16px; font-weight: 400;">PutEvents · prediction.created · idempotency_key</text><line x1="1156" y1="582" x2="1535" y2="582" class="messageLine0" stroke-width="2" stroke="none" marker-end="url(#arrowhead)" style="fill: none;"/><line x1="1149" y1="582" x2="1149" y2="582" stroke-width="0" marker-start="url(#sequencenumber)"/><text x="1149" y="586" font-family="sans-serif" font-size="12px" text-anchor="middle" class="sequenceNumber">6</text><text x="1696" y="597" text-anchor="middle" dominant-baseline="middle" alignment-baseline="middle" class="messageText" dy="1em" style="font-size: 16px; font-weight: 400;">rule starts the state machine</text><line x1="1546" y1="626" x2="1852" y2="626" class="messageLine0" stroke-width="2" stroke="none" marker-end="url(#arrowhead)" style="fill: none;"/><line x1="1539" y1="626" x2="1539" y2="626" stroke-width="0" marker-start="url(#sequencenumber)"/><text x="1539" y="630" font-family="sans-serif" font-size="12px" text-anchor="middle" class="sequenceNumber">7</text><text x="1183" y="641" text-anchor="middle" dominant-baseline="middle" alignment-baseline="middle" class="messageText" dy="1em" style="font-size: 16px; font-weight: 400;">SELECT … WHERE prevention_status='pending' FOR UPDATE</text><line x1="1861" y1="670" x2="510" y2="670" class="messageLine0" stroke-width="2" stroke="none" marker-end="url(#arrowhead)" style="fill: none;"/><line x1="1856" y1="670" x2="1856" y2="670" stroke-width="0" marker-start="url(#sequencenumber)"/><text x="1856" y="674" font-family="sans-serif" font-size="12px" text-anchor="middle" class="sequenceNumber">8</text><text x="1180" y="730" text-anchor="middle" dominant-baseline="middle" alignment-baseline="middle" class="messageText" dy="1em" style="font-size: 16px; font-weight: 400;">0 rows</text><line x1="513" y1="759" x2="1852" y2="759" class="messageLine1" stroke-width="2" stroke="none" marker-end="url(#arrowhead)" style="stroke-dasharray: 3, 3; fill: none;"/><line x1="506" y1="759" x2="506" y2="759" stroke-width="0" marker-start="url(#sequencenumber)"/><text x="506" y="763" font-family="sans-serif" font-size="12px" text-anchor="middle" class="sequenceNumber">9</text><text x="1699" y="774" text-anchor="middle" dominant-baseline="middle" alignment-baseline="middle" class="messageText" dy="1em" style="font-size: 16px; font-weight: 400;">clean no-op — exactly-once execution</text><line x1="1861" y1="803" x2="1543" y2="803" class="messageLine1" stroke-width="2" stroke="none" marker-end="url(#arrowhead)" style="stroke-dasharray: 3, 3; fill: none;"/><line x1="1856" y1="803" x2="1856" y2="803" stroke-width="0" marker-start="url(#sequencenumber)"/><text x="1856" y="807" font-family="sans-serif" font-size="12px" text-anchor="middle" class="sequenceNumber">10</text><text x="1180" y="863" text-anchor="middle" dominant-baseline="middle" alignment-baseline="middle" class="messageText" dy="1em" style="font-size: 16px; font-weight: 400;">row locked → 'preventing'</text><line x1="513" y1="892" x2="1852" y2="892" class="messageLine1" stroke-width="2" stroke="none" marker-end="url(#arrowhead)" style="stroke-dasharray: 3, 3; fill: none;"/><line x1="506" y1="892" x2="506" y2="892" stroke-width="0" marker-start="url(#sequencenumber)"/><text x="506" y="896" font-family="sans-serif" font-size="12px" text-anchor="middle" class="sequenceNumber">11</text><text x="1183" y="907" text-anchor="middle" dominant-baseline="middle" alignment-baseline="middle" class="messageText" dy="1em" style="font-size: 16px; font-weight: 400;">top-8 candidate playbooks by cosine (distance &lt; 0.35)</text><line x1="1861" y1="936" x2="510" y2="936" class="messageLine0" stroke-width="2" stroke="none" marker-end="url(#arrowhead)" style="fill: none;"/><line x1="1856" y1="936" x2="1856" y2="936" stroke-width="0" marker-start="url(#sequencenumber)"/><text x="1856" y="940" font-family="sans-serif" font-size="12px" text-anchor="middle" class="sequenceNumber">12</text><text x="1183" y="1019" text-anchor="middle" dominant-baseline="middle" alignment-baseline="middle" class="messageText" dy="1em" style="font-size: 16px; font-weight: 400;">INSERT evolution_log('competition') — every draw, win or lose</text><line x1="1861" y1="1048" x2="510" y2="1048" class="messageLine0" stroke-width="2" stroke="none" marker-end="url(#arrowhead)" style="fill: none;"/><line x1="1856" y1="1048" x2="1856" y2="1048" stroke-width="0" marker-start="url(#sequencenumber)"/><text x="1856" y="1052" font-family="sans-serif" font-size="12px" text-anchor="middle" class="sequenceNumber">13</text><text x="1980" y="1073" text-anchor="middle" dominant-baseline="middle" alignment-baseline="middle" class="messageText" dy="1em" style="font-size: 16px; font-weight: 400;">winner + evidence bundle</text><line x1="1863" y1="1102" x2="2103.5" y2="1102" class="messageLine0" stroke-width="2" stroke="none" marker-end="url(#arrowhead)" style="fill: none;"/><line x1="1856" y1="1102" x2="1856" y2="1102" stroke-width="0" marker-start="url(#sequencenumber)"/><text x="1856" y="1106" font-family="sans-serif" font-size="12px" text-anchor="middle" class="sequenceNumber">14</text><text x="1308" y="1117" text-anchor="middle" dominant-baseline="middle" alignment-baseline="middle" class="messageText" dy="1em" style="font-size: 16px; font-weight: 400;">promote the sensory window into precursor_snapshots</text><line x1="2112.5" y1="1146" x2="510" y2="1146" class="messageLine0" stroke-width="2" stroke="none" marker-end="url(#arrowhead)" style="fill: none;"/><line x1="2107.5" y1="1146" x2="2107.5" y2="1146" stroke-width="0" marker-start="url(#sequencenumber)"/><text x="2107.5" y="1150" font-family="sans-serif" font-size="12px" text-anchor="middle" class="sequenceNumber">15</text><text x="1308" y="1161" text-anchor="middle" dominant-baseline="middle" alignment-baseline="middle" class="messageText" dy="1em" style="font-size: 16px; font-weight: 400;">hybrid SQL + vector retrieval of similar incidents</text><line x1="2112.5" y1="1190" x2="510" y2="1190" class="messageLine0" stroke-width="2" stroke="none" marker-end="url(#arrowhead)" style="fill: none;"/><line x1="2107.5" y1="1190" x2="2107.5" y2="1190" stroke-width="0" marker-start="url(#sequencenumber)"/><text x="2107.5" y="1194" font-family="sans-serif" font-size="12px" text-anchor="middle" class="sequenceNumber">16</text><text x="2104" y="1273" text-anchor="middle" dominant-baseline="middle" alignment-baseline="middle" class="messageText" dy="1em" style="font-size: 16px; font-weight: 400;">tier decision</text><line x1="1863" y1="1302" x2="2350.5" y2="1302" class="messageLine0" stroke-width="2" stroke="none" marker-end="url(#arrowhead)" style="fill: none;"/><line x1="1856" y1="1302" x2="1856" y2="1302" stroke-width="0" marker-start="url(#sequencenumber)"/><text x="1856" y="1306" font-family="sans-serif" font-size="12px" text-anchor="middle" class="sequenceNumber">17</text><text x="2569" y="1362" text-anchor="middle" dominant-baseline="middle" alignment-baseline="middle" class="messageText" dy="1em" style="font-size: 16px; font-weight: 400;">shadow — record what would have run, execute nothing</text><line x1="2361.5" y1="1391" x2="2782.5" y2="1391" class="messageLine1" stroke-width="2" stroke="none" marker-end="url(#arrowhead)" style="stroke-dasharray: 3, 3; fill: none;"/><line x1="2354.5" y1="1391" x2="2354.5" y2="1391" stroke-width="0" marker-start="url(#sequencenumber)"/><text x="2354.5" y="1395" font-family="sans-serif" font-size="12px" text-anchor="middle" class="sequenceNumber">18</text><text x="1216" y="1451" text-anchor="middle" dominant-baseline="middle" alignment-baseline="middle" class="messageText" dy="1em" style="font-size: 16px; font-weight: 400;">apply remediation_steps (idempotent by construction)</text><line x1="2359.5" y1="1480" x2="79" y2="1480" class="messageLine0" stroke-width="2" stroke="none" marker-end="url(#arrowhead)" style="fill: none;"/><line x1="2354.5" y1="1480" x2="2354.5" y2="1480" stroke-width="0" marker-start="url(#sequencenumber)"/><text x="2354.5" y="1484" font-family="sans-serif" font-size="12px" text-anchor="middle" class="sequenceNumber">19</text><text x="2356" y="1540" text-anchor="middle" dominant-baseline="middle" alignment-baseline="middle" class="messageText" dy="1em" style="font-size: 16px; font-weight: 400;">park in the approval tier until a human answers</text><path d="M 2355.5,1569 C 2415.5,1559 2415.5,1599 2355.5,1589" class="messageLine1" stroke-width="2" stroke="none" marker-end="url(#arrowhead)" x1="2361.5" style="stroke-dasharray: 3, 3; fill: none;"/><line x1="2354.5" y1="1569" x2="2354.5" y2="1569" stroke-width="0" marker-start="url(#sequencenumber)"/><text x="2354.5" y="1573" font-family="sans-serif" font-size="12px" text-anchor="middle" class="sequenceNumber">20</text><text x="1216" y="1654" text-anchor="middle" dominant-baseline="middle" alignment-baseline="middle" class="messageText" dy="1em" style="font-size: 16px; font-weight: 400;">watch the target metric for the verification window</text><line x1="2359.5" y1="1683" x2="79" y2="1683" class="messageLine0" stroke-width="2" stroke="none" marker-end="url(#arrowhead)" style="fill: none;"/><line x1="2354.5" y1="1683" x2="2354.5" y2="1683" stroke-width="0" marker-start="url(#sequencenumber)"/><text x="2354.5" y="1687" font-family="sans-serif" font-size="12px" text-anchor="middle" class="sequenceNumber">21</text><text x="1213" y="1743" text-anchor="middle" dominant-baseline="middle" alignment-baseline="middle" class="messageText" dy="1em" style="font-size: 16px; font-weight: 400;">prevented</text><line x1="82" y1="1772" x2="2350.5" y2="1772" class="messageLine1" stroke-width="2" stroke="none" marker-end="url(#arrowhead)" style="stroke-dasharray: 3, 3; fill: none;"/><line x1="75" y1="1772" x2="75" y2="1772" stroke-width="0" marker-start="url(#sequencenumber)"/><text x="75" y="1776" font-family="sans-serif" font-size="12px" text-anchor="middle" class="sequenceNumber">22</text><text x="1216" y="1832" text-anchor="middle" dominant-baseline="middle" alignment-baseline="middle" class="messageText" dy="1em" style="font-size: 16px; font-weight: 400;">replay inverse_steps in reverse order</text><line x1="2359.5" y1="1861" x2="79" y2="1861" class="messageLine0" stroke-width="2" stroke="none" marker-end="url(#arrowhead)" style="fill: none;"/><line x1="2354.5" y1="1861" x2="2354.5" y2="1861" stroke-width="0" marker-start="url(#sequencenumber)"/><text x="2354.5" y="1865" font-family="sans-serif" font-size="12px" text-anchor="middle" class="sequenceNumber">23</text><text x="1432" y="1876" text-anchor="middle" dominant-baseline="middle" alignment-baseline="middle" class="messageText" dy="1em" style="font-size: 16px; font-weight: 400;">evolution_log('rollback')</text><line x1="2359.5" y1="1905" x2="510" y2="1905" class="messageLine0" stroke-width="2" stroke="none" marker-end="url(#arrowhead)" style="fill: none;"/><line x1="2354.5" y1="1905" x2="2354.5" y2="1905" stroke-width="0" marker-start="url(#sequencenumber)"/><text x="2354.5" y="1909" font-family="sans-serif" font-size="12px" text-anchor="middle" class="sequenceNumber">24</text><text x="1213" y="1965" text-anchor="middle" dominant-baseline="middle" alignment-baseline="middle" class="messageText" dy="1em" style="font-size: 16px; font-weight: 400;">inconclusive — a window that showed nothing taught nothing</text><line x1="82" y1="1994" x2="2350.5" y2="1994" class="messageLine1" stroke-width="2" stroke="none" marker-end="url(#arrowhead)" style="stroke-dasharray: 3, 3; fill: none;"/><line x1="75" y1="1994" x2="75" y2="1994" stroke-width="0" marker-start="url(#sequencenumber)"/><text x="75" y="1998" font-family="sans-serif" font-size="12px" text-anchor="middle" class="sequenceNumber">25</text><text x="2569" y="2019" text-anchor="middle" dominant-baseline="middle" alignment-baseline="middle" class="messageText" dy="1em" style="font-size: 16px; font-weight: 400;">outcome</text><line x1="2361.5" y1="2048" x2="2782.5" y2="2048" class="messageLine0" stroke-width="2" stroke="none" marker-end="url(#arrowhead)" style="fill: none;"/><line x1="2354.5" y1="2048" x2="2354.5" y2="2048" stroke-width="0" marker-start="url(#sequencenumber)"/><text x="2354.5" y="2052" font-family="sans-serif" font-size="12px" text-anchor="middle" class="sequenceNumber">26</text><text x="1648" y="2063" text-anchor="middle" dominant-baseline="middle" alignment-baseline="middle" class="messageText" dy="1em" style="font-size: 16px; font-weight: 400;">growth / mutation / merge / promotion / retirement</text><line x1="2791.5" y1="2092" x2="510" y2="2092" class="messageLine0" stroke-width="2" stroke="none" marker-end="url(#arrowhead)" style="fill: none;"/><line x1="2786.5" y1="2092" x2="2786.5" y2="2092" stroke-width="0" marker-start="url(#sequencenumber)"/><text x="2786.5" y="2096" font-family="sans-serif" font-size="12px" text-anchor="middle" class="sequenceNumber">27</text><text x="1330.75" y="-25">NEXUS — one prevention, end to end</text></svg>